{
  "accessors": [
    {
      "bufferView": 2,
      "componentType": 5126,
      "count": 740,
      "max": [
        0.34087899327278137,
        1.732272982597351,
        -0.19895599782466888
      ],
      "min": [
        -0.34087899327278137,
        -1.1585160493850708,
        -1.1555299758911133
      ],
      "type": "VEC3"
    },
    {
      "bufferView": 2,
      "byteOffset": 8880,
      "componentType": 5126,
      "count": 740,
      "max": [
        0.9945229887962341,
        0.9987573623657227,
        0.9999970197677612
      ],
      "min": [
        -0.9945229887962341,
        -0.9924339056015015,
        -0.9994616508483887
      ],
      "type": "VEC3"
    },
    {
      "bufferView": 3,
      "componentType": 5126,
      "count": 740,
      "max": [
        0.9980791807174683,
        0.9999573230743408,
        0.5451419949531555,
        1.0
      ],
      "min": [
        -0.9999994039535522,
        -0.9993176460266113,
        -0.9976711869239807,
        1.0
      ],
      "type": "VEC4"
    },
    {
      "bufferView": 1,
      "componentType": 5126,
      "count": 740,
      "max": [
        0.979981005191803,
        0.4739449918270111
      ],
      "min": [
        0.2253360003232956,
        0.0038040000945329666
      ],
      "type": "VEC2"
    },
    {
      "bufferView": 0,
      "componentType": 5125,
      "count": 3840,
      "type": "SCALAR"
    },
    {
      "bufferView": 2,
      "byteOffset": 17760,
      "componentType": 5126,
      "count": 600,
      "max": [
        0.647566020488739,
        -0.8384720087051392,
        0.6595979928970337
      ],
      "min": [
        -0.647566020488739,
        -0.897957980632782,
        -0.4721029996871948
      ],
      "type": "VEC3"
    },
    {
      "bufferView": 2,
      "byteOffset": 24960,
      "componentType": 5126,
      "count": 600,
      "max": [
        1.0,
        1.0,
        1.0
      ],
      "min": [
        -1.0,
        -1.0,
        -1.0
      ],
      "type": "VEC3"
    },
    {
      "bufferView": 3,
      "byteOffset": 11840,
      "componentType": 5126,
      "count": 600,
      "max": [
        0.9962048530578613,
        0.993870198726654,
        0.9168453216552734,
        1.0
      ],
      "min": [
        -0.993920087814331,
        -0.9939190149307251,
        -0.9174469709396362,
        1.0
      ],
      "type": "VEC4"
    },
    {
      "bufferView": 1,
      "byteOffset": 5920,
      "componentType": 5126,
      "count": 600,
      "max": [
        0.9930469989776611,
        0.5812190175056458
      ],
      "min": [
        0.004112000111490488,
        0.0037950000260025263
      ],
      "type": "VEC2"
    },
    {
      "bufferView": 0,
      "byteOffset": 15360,
      "componentType": 5125,
      "count": 1584,
      "type": "SCALAR"
    },
    {
      "bufferView": 2,
      "byteOffset": 32160,
      "componentType": 5126,
      "count": 672,
      "max": [
        1.8185579776763916,
        -0.44471800327301025,
        -1.5162800550460815
      ],
      "min": [
        -1.8185579776763916,
        -1.083590030670166,
        -1.7067710161209106
      ],
      "type": "VEC3"
    },
    {
      "bufferView": 2,
      "byteOffset": 40224,
      "componentType": 5126,
      "count": 672,
      "max": [
        1.0,
        1.0,
        1.0
      ],
      "min": [
        -1.0,
        -1.0,
        -1.0
      ],
      "type": "VEC3"
    },
    {
      "bufferView": 3,
      "byteOffset": 21440,
      "componentType": 5126,
      "count": 672,
      "max": [
        0.9981996417045593,
        0.9977881908416748,
        0.9983716011047363,
        1.0
      ],
      "min": [
        -0.980807900428772,
        -0.9986072182655334,
        -0.9998010993003845,
        1.0
      ],
      "type": "VEC4"
    },
    {
      "bufferView": 1,
      "byteOffset": 10720,
      "componentType": 5126,
      "count": 672,
      "max": [
        0.9956709742546082,
        0.27045300602912903
      ],
      "min": [
        0.0041149999015033245,
        0.0038139999378472567
      ],
      "type": "VEC2"
    },
    {
      "bufferView": 0,
      "byteOffset": 21696,
      "componentType": 5125,
      "count": 2724,
      "type": "SCALAR"
    },
    {
      "bufferView": 2,
      "byteOffset": 48288,
      "componentType": 5126,
      "count": 256,
      "max": [
        0.8285750150680542,
        0.10338699817657471,
        -0.5436949729919434
      ],
      "min": [
        -0.8285750150680542,
        -0.10338699817657471,
        -1.622560977935791
      ],
      "type": "VEC3"
    },
    {
      "bufferView": 2,
      "byteOffset": 51360,
      "componentType": 5126,
      "count": 256,
      "max": [
        0.9972558617591858,
        1.0,
        0.9457157850265503
      ],
      "min": [
        -0.9972558617591858,
        -1.0,
        -0.9987710118293762
      ],
      "type": "VEC3"
    },
    {
      "bufferView": 3,
      "byteOffset": 32192,
      "componentType": 5126,
      "count": 256,
      "max": [
        0.9909070730209351,
        0.9988056421279907,
        0.7040569186210632,
        1.0
      ],
      "min": [
        -0.9999828338623047,
        -0.9963392615318298,
        -0.9989412426948547,
        1.0
      ],
      "type": "VEC4"
    },
    {
      "bufferView": 1,
      "byteOffset": 16096,
      "componentType": 5126,
      "count": 256,
      "max": [
        0.9960209727287292,
        0.5551400184631348
      ],
      "min": [
        0.003920000046491623,
        0.003924000076949596
      ],
      "type": "VEC2"
    },
    {
      "bufferView": 0,
      "byteOffset": 32592,
      "componentType": 5125,
      "count": 840,
      "type": "SCALAR"
    },
    {
      "bufferView": 2,
      "byteOffset": 54432,
      "componentType": 5126,
      "count": 1435,
      "max": [
        5.606804847717285,
        5.324894905090332,
        0.8679379820823669
      ],
      "min": [
        -5.606804847717285,
        -1.1182420253753662,
        -0.7626439929008484
      ],
      "type": "VEC3"
    },
    {
      "bufferView": 2,
      "byteOffset": 71652,
      "componentType": 5126,
      "count": 1435,
      "max": [
        0.9992266297340393,
        0.9858779907226563,
        1.0
      ],
      "min": [
        -0.9992266297340393,
        -0.9998921155929565,
        -1.0
      ],
      "type": "VEC3"
    },
    {
      "bufferView": 3,
      "byteOffset": 36288,
      "componentType": 5126,
      "count": 1435,
      "max": [
        0.9993725419044495,
        0.9954938292503357,
        0.9988853931427002,
        1.0
      ],
      "min": [
        -0.915442168712616,
        -0.6207404136657715,
        -0.9997695684432983,
        1.0
      ],
      "type": "VEC4"
    },
    {
      "bufferView": 1,
      "byteOffset": 18144,
      "componentType": 5126,
      "count": 1435,
      "max": [
        0.9959509968757629,
        0.9945510029792786
      ],
      "min": [
        0.0038389998953789473,
        0.004048999864608049
      ],
      "type": "VEC2"
    },
    {
      "bufferView": 0,
      "byteOffset": 35952,
      "componentType": 5125,
      "count": 7080,
      "type": "SCALAR"
    }
  ],
  "asset": {
    "extras": {
      "author": "Vincent Decc (https://sketchfab.com/VincentDecc)",
      "license": "CC-BY-4.0 (http://creativecommons.org/licenses/by/4.0/)",
      "source": "https://sketchfab.com/3d-models/hand-glider-692556a2823648879477ad9ed5db4226",
      "title": "Hand Glider"
    },
    "generator": "Sketchfab-12.68.0",
    "version": "2.0"
  },
  "bufferViews": [
    {
      "buffer": 0,
      "byteLength": 64272,
      "name": "floatBufferViews",
      "target": 34963
    },
    {
      "buffer": 0,
      "byteLength": 29624,
      "byteOffset": 64272,
      "byteStride": 8,
      "name": "floatBufferViews",
      "target": 34962
    },
    {
      "buffer": 0,
      "byteLength": 88872,
      "byteOffset": 93896,
      "byteStride": 12,
      "name": "floatBufferViews",
      "target": 34962
    },
    {
      "buffer": 0,
      "byteLength": 59248,
      "byteOffset": 182768,
      "byteStride": 16,
      "name": "floatBufferViews",
      "target": 34962
    }
  ],
  "buffers": [
    {
      "byteLength": 242016,
      "uri": "scene.bin"
    }
  ],
  "images": [
    {
      "uri": "textures/Material.001_baseColor.jpeg"
    },
    {
      "uri": "textures/Material.001_metallicRoughness.png"
    },
    {
      "uri": "textures/Material.001_emissive.jpeg"
    },
    {
      "uri": "textures/Material.001_normal.png"
    }
  ],
  "materials": [
    {
      "doubleSided": true,
      "emissiveFactor": [
        1.0,
        1.0,
        1.0
      ],
      "emissiveTexture": {
        "index": 2
      },
      "name": "Material.001",
      "normalTexture": {
        "index": 3
      },
      "pbrMetallicRoughness": {
        "baseColorTexture": {
          "index": 0
        },
        "metallicRoughnessTexture": {
          "index": 1
        }
      }
    }
  ],
  "meshes": [
    {
      "name": "defaultMaterial",
      "primitives": [
        {
          "attributes": {
            "NORMAL": 1,
            "POSITION": 0,
            "TANGENT": 2,
            "TEXCOORD_0": 3
          },
          "indices": 4,
          "material": 0,
          "mode": 4
        }
      ]
    },
    {
      "name": "defaultMaterial",
      "primitives": [
        {
          "attributes": {
            "NORMAL": 6,
            "POSITION": 5,
            "TANGENT": 7,
            "TEXCOORD_0": 8
          },
          "indices": 9,
          "material": 0,
          "mode": 4
        }
      ]
    },
    {
      "name": "defaultMaterial",
      "primitives": [
        {
          "attributes": {
            "NORMAL": 11,
            "POSITION": 10,
            "TANGENT": 12,
            "TEXCOORD_0": 13
          },
          "indices": 14,
          "material": 0,
          "mode": 4
        }
      ]
    },
    {
      "name": "defaultMaterial",
      "primitives": [
        {
          "attributes": {
            "NORMAL": 16,
            "POSITION": 15,
            "TANGENT": 17,
            "TEXCOORD_0": 18
          },
          "indices": 19,
          "material": 0,
          "mode": 4
        }
      ]
    },
    {
      "name": "defaultMaterial",
      "primitives": [
        {
          "attributes": {
            "NORMAL": 21,
            "POSITION": 20,
            "TANGENT": 22,
            "TEXCOORD_0": 23
          },
          "indices": 24,
          "material": 0,
          "mode": 4
        }
      ]
    }
  ],
  "nodes": [
    {
      "children": [
        1
      ],
      "matrix": [
        1.0,
        0.0,
        0.0,
        0.0,
        0.0,
        2.220446049250313e-16,
        -1.0,
        0.0,
        0.0,
        1.0,
        2.220446049250313e-16,
        0.0,
        0.0,
        0.0,
        0.0,
        1.0
      ],
      "name": "Sketchfab_model"
    },
    {
      "children": [
        2,
        4,
        6,
        8,
        10
      ],
      "matrix": [
        1.0,
        0.0,
        0.0,
        0.0,
        0.0,
        -4.371139006309477e-08,
        0.999999999999999,
        0.0,
        0.0,
        -0.999999999999999,
        -4.371139006309477e-08,
        0.0,
        0.0,
        0.0,
        0.0,
        1.0
      ],
      "name": "Collada visual scene group"
    },
    {
      "children": [
        3
      ],
      "matrix": [
        100.0,
        0.0,
        0.0,
        0.0,
        0.0,
        -1.6e-05,
        -100.0,
        0.0,
        0.0,
        100.0,
        -1.6e-05,
        0.0,
        0.0,
        104.677071,
        -37.851982,
        1.0
      ],
      "name": "Cube"
    },
    {
      "mesh": 0,
      "name": "defaultMaterial"
    },
    {
      "children": [
        5
      ],
      "matrix": [
        100.0,
        0.0,
        0.0,
        0.0,
        0.0,
        -1.6e-05,
        -100.0,
        0.0,
        0.0,
        100.0,
        -1.6e-05,
        0.0,
        0.0,
        0.0,
        0.0,
        1.0
      ],
      "name": "Grid"
    },
    {
      "mesh": 1,
      "name": "defaultMaterial"
    },
    {
      "children": [
        7
      ],
      "matrix": [
        100.0,
        0.0,
        0.0,
        0.0,
        0.0,
        -1.6e-05,
        -100.0,
        0.0,
        0.0,
        100.0,
        -1.6e-05,
        0.0,
        0.0,
        0.0,
        -101.999405,
        1.0
      ],
      "name": "Rod_02"
    },
    {
      "mesh": 2,
      "name": "defaultMaterial"
    },
    {
      "children": [
        9
      ],
      "matrix": [
        100.0,
        0.0,
        0.0,
        0.0,
        0.0,
        -1.6e-05,
        -100.0,
        0.0,
        0.0,
        100.0,
        -1.6e-05,
        0.0,
        0.0,
        0.0,
        0.0,
        1.0
      ],
      "name": "Rod_01"
    },
    {
      "mesh": 3,
      "name": "defaultMaterial"
    },
    {
      "children": [
        11
      ],
      "matrix": [
        100.0,
        0.0,
        0.0,
        0.0,
        0.0,
        -1.6e-05,
        -100.0,
        0.0,
        0.0,
        100.0,
        -1.6e-05,
        0.0,
        0.0,
        0.0,
        0.0,
        1.0
      ],
      "name": "Body"
    },
    {
      "mesh": 4,
      "name": "defaultMaterial"
    }
  ],
  "samplers": [
    {
      "magFilter": 9729,
      "minFilter": 9987,
      "wrapS": 10497,
      "wrapT": 10497
    }
  ],
  "scene": 0,
  "scenes": [
    {
      "name": "Sketchfab_Scene",
      "nodes": [
        0
      ]
    }
  ],
  "textures": [
    {
      "sampler": 0,
      "source": 0
    },
    {
      "sampler": 0,
      "source": 1
    },
    {
      "sampler": 0,
      "source": 2
    },
    {
      "sampler": 0,
      "source": 3
    }
  ]
}
