{
  "accessors": [
    {
      "bufferView": 1,
      "componentType": 5126,
      "count": 599,
      "max": [
        0.8751717805862427,
        1.022573471069336,
        1.0293563604354858
      ],
      "min": [
        -0.8907980918884277,
        -0.8247955441474915,
        -2.06719970703125
      ],
      "type": "VEC3"
    },
    {
      "bufferView": 1,
      "byteOffset": 7188,
      "componentType": 5126,
      "count": 599,
      "max": [
        0.9945672750473022,
        0.9974694848060608,
        0.9979414939880371
      ],
      "min": [
        -0.9998964071273804,
        -0.9980053901672363,
        -0.9913787841796875
      ],
      "type": "VEC3"
    },
    {
      "bufferView": 0,
      "componentType": 5125,
      "count": 3420,
      "type": "SCALAR"
    }
  ],
  "asset": {
    "extras": {
      "author": "Janosch (https://sketchfab.com/JanoschABR)",
      "license": "CC-BY-4.0 (http://creativecommons.org/licenses/by/4.0/)",
      "source": "https://sketchfab.com/3d-models/lowpoly-mushrooms-2b263d3352be4ad597168864e0634d1b",
      "title": "Lowpoly Mushrooms"
    },
    "generator": "Sketchfab-12.78.0",
    "version": "2.0"
  },
  "bufferViews": [
    {
      "buffer": 0,
      "byteLength": 13680,
      "name": "floatBufferViews",
      "target": 34963
    },
    {
      "buffer": 0,
      "byteLength": 14376,
      "byteOffset": 13680,
      "byteStride": 12,
      "name": "floatBufferViews",
      "target": 34962
    }
  ],
  "buffers": [
    {
      "byteLength": 28056,
      "uri": "scene.bin"
    }
  ],
  "materials": [
    {
      "doubleSided": true,
      "name": "Scene_-_Root",
      "pbrMetallicRoughness": {
        "metallicFactor": 0.0,
        "roughnessFactor": 0.6
      }
    }
  ],
  "meshes": [
    {
      "name": "Hat__0",
      "primitives": [
        {
          "attributes": {
            "NORMAL": 1,
            "POSITION": 0
          },
          "indices": 2,
          "material": 0,
          "mode": 4
        }
      ]
    }
  ],
  "nodes": [
    {
      "children": [
        1
      ],
      "matrix": [
        1.0,
        0.0,
        0.0,
        0.0,
        0.0,
        2.220446049250313e-16,
        -1.0,
        0.0,
        0.0,
        1.0,
        2.220446049250313e-16,
        0.0,
        0.0,
        0.0,
        0.0,
        1.0
      ],
      "name": "Sketchfab_model"
    },
    {
      "children": [
        2
      ],
      "matrix": [
        0.009999999776482582,
        0.0,
        0.0,
        0.0,
        0.0,
        0.0,
        0.009999999776482582,
        0.0,
        0.0,
        -0.009999999776482582,
        0.0,
        0.0,
        0.0,
        0.0,
        0.0,
        1.0
      ],
      "name": "bcfc3ce854b04da2b2a2fbbecfaf7765.fbx"
    },
    {
      "children": [
        3
      ],
      "name": "RootNode"
    },
    {
      "children": [
        4
      ],
      "matrix": [
        100.0,
        0.0,
        0.0,
        0.0,
        0.0,
        -1.629206793918314e-05,
        -99.99999999999868,
        0.0,
        0.0,
        99.99999999999868,
        -1.629206793918314e-05,
        0.0,
        0.0,
        200.0,
        0.0,
        1.0
      ],
      "name": "Hat"
    },
    {
      "mesh": 0,
      "name": "Hat__0"
    }
  ],
  "scene": 0,
  "scenes": [
    {
      "name": "Sketchfab_Scene",
      "nodes": [
        0
      ]
    }
  ]
}
